<?xml version="1.0" encoding="UTF-8"?>
<svg xmlns="http://www.w3.org/2000/svg">
  <rect fill-opacity="0.01" stroke="rgb(200,200,200)" stroke-width="2" x="25" y="25" width="800" height="400" />
  <rect fill-opacity="0.2" fill="rgb(200,100,150)" stroke="rgb(55,55,55)" stroke-width="2" x="20" y="20" width="800" height="400" />
  <text x="0" y="0" fill="rgb(0,0,255)" font-size="40">SVG Demo</text>
  <rect fill-opacity="0" x="0" y="0" width="200" height="50" stroke="rgb(255,0,0)" stroke-width="2" />
  <text x="400" y="400" fill="rgb(255,0,255)" font-size="30">Nguyen Van A</text>
  <circle cx="200" cy="300" r="100" fill="rgb(255, 255, 0)" stroke="rgb(0, 255, 255)" stroke-width="10" stroke-opacity="0.7" fill-opacity="0.5" />
  <polyline stroke="rgb(255, 0, 0)" stroke-width="2" stroke-opacity="0.7" fill="rgb(0, 255, 255)" fill-opacity="0.5" points="5,37 15,37 15,32 25,32 25,37 35,37 35,25 45,25 45,37 55,37 55,17 65,17 65,37 75,37 75,10 85,10 85,37 95,37 95,2 105,2 105,37 115,37" />
  <ellipse cx="500" cy="100" rx="100" ry="50" stroke="rgb(255, 255, 0)" stroke-width="3" fill="rgb(0, 255, 0)" stroke-opacity="0.7" fill-opacity="0.5" />
  <line x1="10" y1="30" x2="30" y2="10" stroke="rgb(0, 0, 255)" stroke-width="5" stroke-opacity="0.7" />
  <line x1="30" y1="30" x2="50" y2="10" stroke="rgb(0, 0, 255)" stroke-width="10" stroke-opacity="0.8" />
  <line x1="50" y1="30" x2="70" y2="10" stroke="rgb(0, 0, 255)" stroke-width="15" stroke-opacity="0.9" />
  <line x1="70" y1="30" x2="90" y2="10" stroke="rgb(0, 0, 255)" stroke-width="20" stroke-opacity="0.9" />
  <line x1="90" y1="30" x2="110" y2="10" stroke="rgb(0, 0, 255)" stroke-width="25" stroke-opacity="1.0" />
  <polygon fill="rgb(153, 204, 255)" fill-opacity="0.5" stroke-width="10" stroke="rgb(255, 0, 102)" stroke-opacity="0.7" points="850,75 958,137 958,262 850,325 742,262 742,137" />
  <polygon fill="rgb(255, 255, 0)" fill-opacity="0.6" stroke-width="10" stroke="rgb(255, 0, 0)" stroke-opacity="0.7" points="350,75 379,161 469,161 397,215 423,301 350,250 277,301 303,215 231,161 321,161" />
  <polyline points="0,40 40,40 40,80 80,80 80,120 120,120 120,140" fill-opacity="0.5" />
  <path fill="#2E3192" d="M744.9863,443.0182c-4.271,0.8895-7.9595,3.1602-11.9146,4.8795
			c-12.5162,5.4733-25.9999,8.5618-39.6432,8.1966c3.1221-7.5571,29.9121-56.5865,23.888-59.8869
			c-14.0723,14.7908-21.9409,34.3201-32.9908,51.3569c-12.5036-16.6069-20.3456-35.6676-22.046-56.5336
			c-0.1584-2.1276-0.2529-4.3259-1.936-6.7903c-13.5753,22.3547,3.0597,52.7283,15.7426,72.1106
			c1.2792,1.8508,1.2774,3.1932,0.0161,4.9561c-13.5205,19.6419-27.6381,39.2408-45.9321,54.7748
			c-14.9556-23.3471-33.4752-42.9323-56.6136-58.0598c14.9841-20.0677,20.368-58.1569-4.4903-72.2122
			c29.3372-65.8945,19.2241-125.3273-27.9875-179.1783c21.1165,0.2199,54.3228,4.9352,70.4757-11.0908
			c6.0707-6.3561,4.3719-15.8902-1.572-21.6881c-20.8155-19.4169-51.79-21.8483-78.7175-26.1214
			c-7.4641-0.5817-8.3977-22.7061-9.0499-28.7297c-1.0939-16.9385-0.9267-33.8867-0.2002-50.8365
			c0.9955-12.7213-0.3437-26.052-11.2274-34.3636c-29.89-21.6109-80.7689-16.0255-115.866-12.1599
			c-129.1422,20.3965-40.3146,80.1005-51.3534,127.0255c-0.5983,2.6777-0.5554,2.6624-3.0284,3.1434
			c-25.3924,5.1144-53.0225,9.8529-72.9664,27.6753c-12.6393,10.4639-19.2759,34.5785,1.7108,39.369
			c15.4531,4.0043,30.7496-1.359,45.6529-5.1763c-36.3528,50.6862-45.1058,120.4861-12.9639,175.4957
			c-6.7565,0.9985-9.9038,6.1641-11.8481,11.9058c-6.6448,20.2445-6.3195,44.3736,10.7498,59.39
			c-22.9594,16.9197-40.8848,38.0142-54.9811,62.9106c-21.723-16.8405-40.0768-36.2968-56.7072-57.4364
			c10.1013-18.8848,18.4083-39.8362,17.2473-61.5883c-0.3667-3.2946-1.0799-11.2339-4.7975-12.2006
			c-1.6665,0.7908-1.6119,3.4836-1.8427,5.1481c-1.7661,20.3088-7.3421,40.1885-18.0599,57.6568
			c-2.5402-2.4256-40.6044-59.393-38.8574-43.7687c8.6985,18.737,20.2833,35.833,30.9291,53.5126
			c-18.2721,1.8265-35.8729-3.0062-52.2338-10.9392c-0.9119-0.3885-1.8882-1.0134-2.9202,0.2161
			c8.5482,20.5255,39.836,23.1749,59.285,21.7841c2.0932-0.1974,3.3129,0.2767,4.6381,1.9988
			c16.5324,22.4435,35.1736,43.1178,55.8614,61.8051c-55.6197,115.2323-1.4747,249.6344,121.2521,289.303
			c-26.3093,2.7676-54.1201,1.9062-80.2805,8.5636c-1.4323,0.3387-3.0239,0.7544-3.7707,2.6135
			c3.2437,3.3992,19.5896,3.8451,25.2867,4.5651c67.4598,2.431,135.0128,0.8613,202.5063,1.1544
			c27.1201-0.3587,54.5033,0.6603,81.3833-3.6125c1.816-0.2968,3.9144-0.5883,5.0486-2.9456
			c-2.6986-1.7458-5.5703-2.5765-8.6528-3.2069c-19.1364-3.7822-38.6037-5.1491-58.0045-6.7918
			c123.9561-43.656,177.0189-180.6115,115.9056-296.8039c17.2694-19.7775,33.9703-40.042,47.1555-62.8302
			c1.0436-1.7507,2.1636-2.326,4.1963-2.2878c19.0349-0.2763,42.6752-3.3043,54.0047-20.4993
			C745.0246,445.7472,745.8224,444.6983,744.9863,443.0182z"/>
	<path fill="#EDFFFF" d="M325.5785,395.1559c32.1409,13.3707,65.3513,24.0781,100.4223,25.2776
			c0,0,102.5212-1.6189,124.2893-31.2893c37.9366-51.7084,31.3746-125.9114-10.8126-173.2226
			c-27.9645-31.2394-43.5852-36.3425-85.8912-35.1955c-34.2426-0.3218-100.3448,9.551-127.8409,31.9857
			c-23.921,31.9051-36.3134,72.7774-31.0302,112.5303C297.2022,345.2843,309.1475,383.1538,325.5785,395.1559z M445.3852,381.2289
			c0.3652-11.4182,16.8729-11.684,17.0259,0.0081C462.4118,392.0529,445.077,392.6837,445.3852,381.2289z M471.5401,372.8105
			c0.0806-11.3889,16.7464-11.4717,16.6281,0.0297C488.3181,384.1773,471.3481,383.7469,471.5401,372.8105z M496.6613,357.9572
			c0.0964-8.7463,13.4521-8.7061,13.1873,0.2651C509.8857,366.9137,496.2849,366.8756,496.6613,357.9572z M513.6066,344.7791
			c0.0497-7.3111,10.9-7.792,11.0288-0.2861C524.8019,351.8133,513.6091,352.1642,513.6066,344.7791z M491.2953,259.2859
			c-0.5195,19.5562-29.5944,19.4304-29.8307-0.0677C462.0327,239.3614,490.919,239.5094,491.2953,259.2859z M440.3548,280.5669
			c17.7508,3.6166,33.5607,13.3656,50.4047,19.7332c10.5281,4.5102,21.4236,8.2267,31.9134,12.7994
			c3.2993,2.1678-0.9723,4.2865-3.2582,4.3585c-26.1398,3.9861-52.1504,8.9476-78.417,12.0143
			C407.8147,330.9576,410.2241,276.5915,440.3548,280.5669z M425.3101,372.6817c11.6139,0.0441,11.8134,18.2652-0.0522,18.1412
			C413.4939,391.2899,414.34,372.4318,425.3101,372.6817z M390.0794,370.9293c0.286-11.609,16.6195-11.4949,16.6865,0.0153
			C406.6116,381.873,389.8701,382.4294,390.0794,370.9293z M405.5486,266.1525c-0.2045,18.9451-30.8288,19.7023-30.4147-0.248
			C374.9473,245.6937,405.5105,245.8961,405.5486,266.1525z M383.2867,353.26c-0.0912,9.7538-14.0261,9.9824-14.1771,0.1106
			C369.003,343.4828,383.1841,343.6027,383.2867,353.26z M359.5871,328.5471c7.6547-0.2156,7.6458,11.7225,0.0198,11.744
			C351.8396,340.537,352.0508,328.503,359.5871,328.5471z"/>
	<path fill="#EDFFFF" d="M566.5965,463.5398c-3.7459,2.2109-10.8972-0.9893-11.966,1.8932
			c-3.4554,7.1868-9.209,12.5623-17.3354,13.3899c-4.1391,1.0854-9.0041-1.0353-12.4597,1.8992
			c-5.7701,4.8481-23.6093,11.8981-28.5294,3.2625c-61.2637,9.7967-129.4159,11.5398-185.8173-17.6376
			c-3.6436-2.2863-3.6658-2.3187-7.1554,0.418C172.0154,576.2682,218.2034,785.774,389.029,821.0873
			c197.5677,46.316,348.2454-166.4682,213.9595-328.204C597.8552,487.2728,573.2842,460.8093,566.5965,463.5398z M458.4452,517.584
			c30.2823,14.0081,19.0835,51.6147-12.7888,52.0817C401.5415,568.0189,423.1638,503.0813,458.4452,517.584z M446.6711,734.6909
			c-45.8903-1.9612-23.0886-67.4097,12.7639-51.3883C488.9688,697.9296,478.3087,734.0106,446.6711,734.6909z M446.4508,650.0037
			c-41.949-0.7529-26.3048-59.8622,7.2158-54.0687C488.7224,604.5721,483.2553,650.2903,446.4508,650.0037z"/>
	<path fill="#659AD2" d="M448.1925,140.6055c10.5306-1.1801,20.9034-4.4426,29.7555-10.3973
			c-0.1392-0.2024-0.2786-0.4047-0.4178-0.6071c-31.8327,11.2228-67.3215,3.1635-99.0996,15.5775
			C401.8975,143.801,424.9329,143.0088,448.1925,140.6055z"/>
		<path fill="#659AD2" d="M387.5021,121.6467c16.159,8.4854,61.0875,8.1576,74.002-5.973
			C437.1122,124.1997,412.6434,126.842,387.5021,121.6467z"/>
		<path fill="#659AD2" d="M479.4612,54.1978c20.1549,21.2163,27.0912,46.9879,26.3552,75.2142
			C517.025,104.9719,503.3341,68.5546,479.4612,54.1978z"/>
		<path fill="#659AD2" d="M452.316,318.0039c-9.4379-0.0009-18.1764-1.8309-26.0242-8.4692
			C428.8235,321.2319,444.9249,324.4332,452.316,318.0039z"/>
		<path fill="#659AD2" d="M393.8304,50.6947c2.3785-0.7239,5.1412-0.7163,6.531-3.1191c-1.9003-1.5357-3.707-1.1859-5.4132-1.0558
			c-17.2883,1.3586-40.114,10.4965-42.1607,30.0439C359.0512,59.8527,377.9015,54.097,393.8304,50.6947z"/>
		<path fill="#659AD2" d="M458.4159,296.1051c-8.5159-3.8301-19.691-11.3099-28.3362-3.9367
			C440.2116,291.8405,449.3748,293.4785,458.4159,296.1051z"/>
		<path fill="#659AD2" d="M511.0401,161.633c0.008-0.0713,0.0159-0.1426,0.0238-0.2139
			c-60.4285-8.9084-178.9391-10.6974-230.1061,23.9144c-7.5956,5.3008-13.9692,19.0552-3.4511,24.6777
			c-3.1194-5.7861-5.1866-11.4514,0.5732-16.3571c5.5509-4.9705,12.6939-7.7371,19.3566-10.8702
			C364.8579,156.0268,439.7137,155.7301,511.0401,161.633z"/>
		<path fill="#659AD2" d="M512.2512,71.9124c0.1981,0.0032,0.3962,0.0063,0.5942,0.0095
			c4.1224-44.2154-52.6233-44.8419-83.4287-39.1613C460.4852,30.4086,504.6968,34.5965,512.2512,71.9124z"/>
		<path fill="#659AD2" d="M395.256,68.7365c1.2155-0.5258,2.6598-1.2643,2.1585-2.9387c-0.5515-1.8416-2.1605-1.1815-3.4092-0.9387
			c-13.117,2.8547-27.6472,8.3535-34.6987,20.4874c-7.1627,16.3019,64.1561-8.6958,69.6454-12.433
			c-22.1401,5.0182-43.8759,11.9113-66.6019,13.6354C370.2437,76.0579,384.0056,74.0497,395.256,68.7365z"/>
		<path fill="#659AD2" d="M446.812,689.3033c21.8793,8.8073,21.3019,35.7159-2.4428,40.8057
			c11.6948,0.3441,20.4002-8.8381,22.5995-17.0883C470.8788,700.3505,457.9019,691.1394,446.812,689.3033z"/>
		<path fill="#659AD2" d="M447.1881,605.0997c20.9545,7.491,20.8827,32.6909,0.0773,40.1973
			c9.437,0.6066,18.4825-8.9877,20.3161-17.8605C470.5235,615.1763,458.1975,606.416,447.1881,605.0997z"/>
		<path fill="#659AD2" d="M510.8648,182.2234c24.325,5.5123,48.8271,9.2436,73.906,7.1304
			c-24.7272-1.1457-49.2021-5.3593-73.8255-7.7953C510.9184,181.7801,510.8916,182.0017,510.8648,182.2234z"/>
		<path fill="#659AD2" d="M446.747,564.7725c10.2562-0.339,17.6472-8.4674,19.8302-18.1742
			c2.8678-12.3017-10.3314-20.7418-21-22.2823C464.9226,530.5686,467.8569,558.2997,446.747,564.7725z"/>
		<path fill="#659AD2" d="M308.0085,452.3615l4.091,3.5989c0,0,99.3785,40.1696,178.0374,15.5208c0,0,26.0988,8.6996,29.3612-2.8999
			c0,0,21.3865,3.9873,26.4613-9.0621c0,0,9.3587-7.5696,16.0976-4.1473l2.8466-3.8121c8.2588-11.0601,12.3594-28.0835,9.752-40.478
			c-1.5381-7.3096-5.207-12.6494-10.9043-15.8706c-23.5313,24.1379-75.0642,36.3968-133.0616,37.4843
			c-57.9974,1.0875-122.5271-33.5188-122.5271-33.5188l-4.6106,0.6815c-0.5908,0.0869-1.6885,0.249-3.1831,4.6426
			C297.8928,412.0681,291.237,437.6067,308.0085,452.3615z M563.3078,440.7378c1.2918-12.1489,1.6097-24.647-5.2712-36
			C570.6772,409.3367,572.5503,433.6478,563.3078,440.7378z M543.0087,451.9748c1.2918-12.1489,1.6097-24.647-5.2712-36
			C550.3782,420.5737,552.2512,444.8848,543.0087,451.9748z M521.2379,435.4808c1.3579,8.6636,2.191,19.1875-6.6628,26.086
			c2.2926-4.7758,1.5851-9.6251,1.4891-14.4438c0.3525-7.1951-0.7948-14.2653-2.0352-21.3998
			C518.5066,424.2674,520.6536,433.402,521.2379,435.4808z M311.5403,409.7528c43.0619,30.1765,97.3671,40.4494,148.9296,31.8259
			c0.0342,0.1674,0.0685,0.3349,0.1026,0.5023c-52.2388,11.7282-114.1218,6.2282-155.8347-29.8157
			C302.4174,407.036,308.8697,407.9049,311.5403,409.7528z M303.4317,438.6299c2.5106,0.0394,4.7653,1.1558,6.9612,2.2062
			c13.6282,7.498,28.2946,12.0211,43.4539,15.0148c48.1296,9.7158,98.2928,11.5864,146.4011,3.0319
			c0.2022,1.4411-0.9958,1.3618-1.8068,1.56c-59.7853,13.9916-126.7846,15.1144-183.4164-11.0035
			c-3.5206-1.8964-6.7591-4.3419-10.0157-6.6898C303.8047,441.8814,302.6874,440.6588,303.4317,438.6299z"/>
</svg>
