<?xml version="1.0" encoding="utf-8"?>
<!-- Generator: Adobe Illustrator 27.5.0, SVG Export Plug-In . SVG Version: 6.00 Build 0)  -->
<svg version="1.1" xmlns="http://www.w3.org/2000/svg" xmlns:xlink="http://www.w3.org/1999/xlink" x="0px" y="0px"
	 viewBox="0 0 500 500" style="enable-background:new 0 0 500 500;" xml:space="preserve">
<g id="BACKGROUND">
	<rect style="fill:#FBF0E3;" width="500" height="500"/>
</g>
<g id="OBJECTS">
	<circle style="fill:#FCD9B4;" cx="250" cy="250" r="204.497"/>
	<g>
		<g>
			<defs>
				<path id="SVGID_1_" d="M252.933,311.251c0,0,36.162-28.727,78.26-2.281c42.098,26.446,27.67,95.611-28.191,101.548
					C247.14,416.456,220.55,367.505,252.933,311.251z"/>
			</defs>
			<use xlink:href="#SVGID_1_"  style="overflow:visible;fill:#FEFAEE;"/>
			<clipPath id="SVGID_00000175308181863673490860000011187835939709181334_">
				<use xlink:href="#SVGID_1_"  style="overflow:visible;"/>
			</clipPath>
			<path style="clip-path:url(#SVGID_00000175308181863673490860000011187835939709181334_);fill:#F1D7B5;" d="M239.273,286.14
				c0,0,36.161-28.727,78.26-2.281c42.098,26.447,27.67,95.611-28.191,101.548C233.481,391.344,206.89,342.393,239.273,286.14z"/>
			<use xlink:href="#SVGID_1_"  style="overflow:visible;fill:none;stroke:#2B1E1B;stroke-width:4;stroke-miterlimit:10;"/>
		</g>
		<g>
			<defs>
				<path id="SVGID_00000005953557387389106600000006418943176607157911_" d="M171.085,141.053c0,0,50.519-40.133,109.332-3.186
					s38.656,133.573-39.385,141.867C162.992,288.027,125.844,219.641,171.085,141.053z"/>
			</defs>
			<use xlink:href="#SVGID_00000005953557387389106600000006418943176607157911_"  style="overflow:visible;fill:#FEFAEE;"/>
			<clipPath id="SVGID_00000158726148995680086740000004318457130344976046_">
				<use xlink:href="#SVGID_00000005953557387389106600000006418943176607157911_"  style="overflow:visible;"/>
			</clipPath>
			<path style="clip-path:url(#SVGID_00000158726148995680086740000004318457130344976046_);fill:#F1D7B5;" d="M178.331,168.072
				c0,0,34.354-27.292,74.349-2.167c39.995,25.125,26.287,90.833-26.783,96.473C172.827,268.018,147.566,221.514,178.331,168.072z"
				/>
			
				<use xlink:href="#SVGID_00000005953557387389106600000006418943176607157911_"  style="overflow:visible;fill:none;stroke:#2B1E1B;stroke-width:4;stroke-miterlimit:10;"/>
		</g>
		<g>
			<defs>
				<path id="SVGID_00000165214728752298324220000013845869614186939057_" d="M152.862,280.363
					c42.644,21.304,29.509,54.833-2.055,64.496c-31.564,9.663-48.314,24.305-54.65,50.492c-6.336,26.188,10.897,51.98,30.848,55.855
					c-19.959-26.246,3.973-48.6,45.098-43.577c41.125,5.022,95.755-36.455,89.052-89.137c-5.859-46.045-40.088-65.447-67.872-70.241
					s-46.728,4.251-57.563-17.693l-16.4,5.042C119.32,235.602,110.218,259.059,152.862,280.363z"/>
			</defs>
			<use xlink:href="#SVGID_00000165214728752298324220000013845869614186939057_"  style="overflow:visible;fill:#FEFAEE;"/>
			<clipPath id="SVGID_00000057859589503223034160000012762681532889325188_">
				<use xlink:href="#SVGID_00000165214728752298324220000013845869614186939057_"  style="overflow:visible;"/>
			</clipPath>
			<path style="clip-path:url(#SVGID_00000057859589503223034160000012762681532889325188_);fill:#CA543D;" d="M205.443,414.324
				c0,0-21.137-28.198-53.354-27.737c22.65-5.826,36.195-2.142,36.195-2.142s-15.952-17.176-46.724-11
				c14.447-8.25,27.56-6.615,27.56-6.615s-8.739-9.012-29.536-3.978c22.262-16.253,47.071-16.925,47.071-16.925
				s-15.499-13.368-44.834-4.042c10.651-11.161,28.337-12.327,28.337-12.327s-16.416-10.594-40.86-2.111
				c-24.444,8.484-74.806,32.397-46.346,102.203c28.46,69.807,83.829,26.68,83.829,26.68s-33.752-12.304-28.67-32.155
				C143.192,404.324,205.443,414.324,205.443,414.324z"/>
			
				<use xlink:href="#SVGID_00000165214728752298324220000013845869614186939057_"  style="overflow:visible;fill:none;stroke:#2B1E1B;stroke-width:4;stroke-miterlimit:10;"/>
		</g>
		<g>
			<defs>
				<path id="SVGID_00000101078221020595230170000001939801967829355709_" d="M260.135,247.286c0,0,27.372,1.258,44.72-30.424
					c17.348-31.681-9.412-72.917,5.395-122.176c14.807-49.259,66.868-60.638,108.136-30.903
					c-54.046-0.966-66.039,58.397-34.292,118.017s1.877,121.262-117.512,74.253"/>
			</defs>
			<use xlink:href="#SVGID_00000101078221020595230170000001939801967829355709_"  style="overflow:visible;fill:#FEFAEE;"/>
			<clipPath id="SVGID_00000107563286514256890710000004859753939296985994_">
				<use xlink:href="#SVGID_00000101078221020595230170000001939801967829355709_"  style="overflow:visible;"/>
			</clipPath>
			<path style="clip-path:url(#SVGID_00000107563286514256890710000004859753939296985994_);fill:#CA543D;" d="M406.51,147.436
				c0,0-29.797-9.154-39.056-36.108c1.93,20.597,9.05,30.769,9.05,30.769s-19.071-8.137-23.14-35.6
				c-2.543,14.494,2.742,24.92,2.742,24.92s-10.117-4.577-12.151-23.394c-6.866,23.394,0,44.246,0,44.246s-15.766-8.9-16.783-36.109
				c-6.103,12.206-1.78,27.276-1.78,27.276s-13.731-10.493-13.986-33.379c-0.254-22.886,4.577-71.963,71.2-69.166
				s47.297,61.791,47.297,61.791s-20.343-24.411-35.346-14.24S406.51,147.436,406.51,147.436z"/>
			<path style="clip-path:url(#SVGID_00000107563286514256890710000004859753939296985994_);fill:#F1D7B5;" d="M280.276,180.284
				c0,0,36.161-28.727,78.26-2.281c42.098,26.447,27.67,95.611-28.191,101.548C274.484,285.488,247.893,236.537,280.276,180.284z"/>
			
				<use xlink:href="#SVGID_00000101078221020595230170000001939801967829355709_"  style="overflow:visible;fill:none;stroke:#2B1E1B;stroke-width:4;stroke-miterlimit:10;"/>
		</g>
		<g>
			<defs>
				<path id="SVGID_00000075863187025160719410000007582564214344263066_" d="M294.171,250.315c0,0,9.742-21.106,51.273-6.451
					c41.531,14.655,55.375-15.596,41.531-42.771c-13.844-27.175-14.869-47.703-1.538-68.725
					c13.331-21.022,41.531-26.131,56.913-15.364c-30.251,3.589-29.738,33.84,0,57.939s37.254,87.023-2.051,116.391
					c-34.353,25.668-69.219,15.382-90.241,0c-21.022-15.382-27.175-33.775-48.71-26.886"/>
			</defs>
			<use xlink:href="#SVGID_00000075863187025160719410000007582564214344263066_"  style="overflow:visible;fill:#FEFAEE;"/>
			<clipPath id="SVGID_00000049221807630742493350000008860351007426665345_">
				<use xlink:href="#SVGID_00000075863187025160719410000007582564214344263066_"  style="overflow:visible;"/>
			</clipPath>
			<path style="clip-path:url(#SVGID_00000049221807630742493350000008860351007426665345_);fill:#CA543D;" d="M474.97,211.253
				c0,0-31.462-8.264-42.274-35.971c2.898,21.393,10.759,31.693,10.759,31.693s-20.235-7.665-25.657-36.125
				c-2.029,15.222,3.93,25.866,3.93,25.866s-10.745-4.338-13.675-23.87c-6.153,24.688,1.901,46.134,1.901,46.134
				s-16.821-8.602-19.051-36.928c-5.839,12.989-0.684,28.517-0.684,28.517s-14.768-10.351-16.017-34.202
				c-1.249-23.852,1.68-75.231,71.266-75.177c69.586,0.053,51.971,62.396,51.971,62.396s-22.26-24.579-37.466-13.329
				C444.767,161.505,474.97,211.253,474.97,211.253z"/>
			<path style="clip-path:url(#SVGID_00000049221807630742493350000008860351007426665345_);fill:#D1B89D;" d="M467.085,228.433
				c0,0,3.05,72.883-95.032,54.269c19.379,28.08,42.002,21.79,42.002,21.79S464.826,297.557,467.085,228.433z"/>
			
				<use xlink:href="#SVGID_00000075863187025160719410000007582564214344263066_"  style="overflow:visible;fill:none;stroke:#2B1E1B;stroke-width:4;stroke-miterlimit:10;"/>
		</g>
		<g>
			<defs>
				<path id="SVGID_00000113324753178938538910000001887024317713538176_" d="M240.986,332.064c0,0-29.65,6.248-54.226-25.24
					c-24.576-31.488-2.714-81.258-27.647-132.383s-83.78-54.272-123.524-14.469c58.814-10.679,82.476,51.974,58.444,122.698
					c-24.031,70.723,19.548,132.681,141.477,60.112"/>
			</defs>
			<use xlink:href="#SVGID_00000113324753178938538910000001887024317713538176_"  style="overflow:visible;fill:#FEFAEE;"/>
			<clipPath id="SVGID_00000101801691748260960100000015695881489822392253_">
				<use xlink:href="#SVGID_00000113324753178938538910000001887024317713538176_"  style="overflow:visible;"/>
			</clipPath>
			<path style="clip-path:url(#SVGID_00000101801691748260960100000015695881489822392253_);fill:#CA543D;" d="M99.817,263.118
				c0,0,20.65-32.336,7.849-64.995c14.607,20.856,16.037,36.071,16.037,36.071s11.401-22.833-6.673-51.833
				c13.938,11.567,17.291,25.558,17.291,25.558s5.84-12.356-7.251-31.626c25.086,16.469,35.267,41.497,35.267,41.497
				s7.692-20.913-13.041-47.243c15.452,6.583,23.41,24.163,23.41,24.163s4.515-20.786-13.488-42.453
				c-18.003-21.667-61.652-63.844-121.907-8.118c-60.255,55.726,4.893,95.652,4.893,95.652s-0.378-39.11,21.8-41.528
				C86.182,195.844,99.817,263.118,99.817,263.118z"/>
			<path style="clip-path:url(#SVGID_00000101801691748260960100000015695881489822392253_);fill:#F1D7B5;" d="M205.152,272.607
				c0,0,28.727,36.161,2.281,78.26c-26.446,42.099-95.611,27.67-101.548-28.191C99.947,266.814,148.898,240.223,205.152,272.607z"/>
			
				<use xlink:href="#SVGID_00000113324753178938538910000001887024317713538176_"  style="overflow:visible;fill:none;stroke:#2B1E1B;stroke-width:4;stroke-miterlimit:10;"/>
		</g>
		<g>
			<defs>
				<path id="SVGID_00000177460951926640585600000017641961020749852554_" d="M46.468,300.267c0,0-3.924-25.9,26.685-26.685
					c30.609-0.785,45.914,34.926,47.483,60.041s32.571,111.841,127.146,62.788c-38.85-29.432-18.836-80.055-52.193-136.956
					c-33.356-56.902-96.5-75.359-138.526-40.42C19.829,249.991,33.008,293.598,46.468,300.267z"/>
			</defs>
			<use xlink:href="#SVGID_00000177460951926640585600000017641961020749852554_"  style="overflow:visible;fill:#FEFAEE;"/>
			<clipPath id="SVGID_00000161603022163152553180000012804291827700341131_">
				<use xlink:href="#SVGID_00000177460951926640585600000017641961020749852554_"  style="overflow:visible;"/>
			</clipPath>
			<path style="clip-path:url(#SVGID_00000161603022163152553180000012804291827700341131_);fill:#CA543D;" d="M122.763,301.263
				c0,0-9.486-31.808-38.106-41.902c21.915,2.236,32.683,9.906,32.683,9.906s-8.497-20.378-37.704-24.951
				c15.455-2.581,26.51,3.138,26.51,3.138s-4.785-10.812-24.803-13.143c24.97-7.106,47.112,0.388,47.112,0.388
				s-9.338-16.865-38.301-18.186c13.05-6.391,29.059-1.656,29.059-1.656s-11.053-14.713-35.419-15.184
				c-24.366-0.471-76.665,4.243-74.27,75.207c2.395,70.963,65.38,50.902,65.38,50.902s-25.815-21.875-14.853-37.76
				C71.014,272.135,122.763,301.263,122.763,301.263z"/>
			<path style="clip-path:url(#SVGID_00000161603022163152553180000012804291827700341131_);fill:#D1B89D;" d="M119.995,327.475
				c0,0,20.268,86.529,116.107,42.77c12.559,20.425-2.514,32.721-2.514,32.721S137.264,446.601,119.995,327.475z"/>
			
				<use xlink:href="#SVGID_00000177460951926640585600000017641961020749852554_"  style="overflow:visible;fill:none;stroke:#2B1E1B;stroke-width:4;stroke-miterlimit:10;"/>
		</g>
		<g>
			<defs>
				<path id="SVGID_00000135669307489670269430000003410385121506597288_" d="M238.166,81c0,0,13.189-17.9,32.032,0
					c18.842,17.9,6.595,48.519-7.537,64.535c-14.132,16.016-47.576,86.674,38.626,113.995
					c-5.653-40.982,36.742-59.353,50.874-113.524c14.132-54.171-12.689-103.147-58.882-107.4
					C252.351,34.836,228.744,66.397,238.166,81z"/>
			</defs>
			<use xlink:href="#SVGID_00000135669307489670269430000003410385121506597288_"  style="overflow:visible;fill:#FEFAEE;"/>
			<clipPath id="SVGID_00000004547837767092051740000015048949064296063165_">
				<use xlink:href="#SVGID_00000135669307489670269430000003410385121506597288_"  style="overflow:visible;"/>
			</clipPath>
			<path style="clip-path:url(#SVGID_00000004547837767092051740000015048949064296063165_);fill:#CA543D;" d="M250.608,151
				c0,0,33.716-10.358,44.192-40.857c-2.184,23.306-10.24,34.815-10.24,34.815s21.579-9.207,26.183-40.282
				c2.877,16.4-3.103,28.197-3.103,28.197s11.447-5.179,13.749-26.471c7.769,26.471,0,50.064,0,50.064s17.839-10.07,18.99-40.857
				c6.905,13.811,2.014,30.863,2.014,30.863s15.537-11.873,15.825-37.768c0.288-25.895-5.179-81.426-80.563-78.261
				s-53.517,69.917-53.517,69.917s23.018-27.622,39.994-16.113S250.608,151,250.608,151z"/>
			<path style="clip-path:url(#SVGID_00000004547837767092051740000015048949064296063165_);fill:#D1B89D;" d="M267.908,138.756
				c0,0-39.755,56.629,26.263,111.558c-31.106-11.364-35.488-12.428-35.488-12.428S221.9,192.556,267.908,138.756z"/>
			
				<use xlink:href="#SVGID_00000135669307489670269430000003410385121506597288_"  style="overflow:visible;fill:none;stroke:#2B1E1B;stroke-width:4;stroke-miterlimit:10;"/>
		</g>
		<g>
			<defs>
				<path id="SVGID_00000067927719711989248070000011344049429458001086_" d="M157.322,36.105c0,0-63.267,22.716-19.979,102.651
					c49.393-17.185,57.717-17.76,57.717-17.76S138.453,90.492,157.322,36.105z"/>
			</defs>
			<use xlink:href="#SVGID_00000067927719711989248070000011344049429458001086_"  style="overflow:visible;fill:#FEFAEE;"/>
			<clipPath id="SVGID_00000039813133685091629970000016827392320503899566_">
				<use xlink:href="#SVGID_00000067927719711989248070000011344049429458001086_"  style="overflow:visible;"/>
			</clipPath>
			<path style="clip-path:url(#SVGID_00000039813133685091629970000016827392320503899566_);fill:#CA543D;" d="M208.234,151.487
				c0,0-34.001-10.446-44.565-41.202c2.202,23.503,10.327,35.109,10.327,35.109s-21.762-9.285-26.404-40.622
				c-2.902,16.539,3.129,28.435,3.129,28.435s-11.544-5.223-13.865-26.695c-7.834,26.695,0,50.487,0,50.487
				s-17.99-10.155-19.15-41.202c-6.964,13.927-2.031,31.124-2.031,31.124s-15.668-11.973-15.959-38.087
				c-0.29-26.114,5.223-82.115,81.244-78.923c76.021,3.192,53.969,70.508,53.969,70.508s-23.213-27.855-40.332-16.249
				C177.477,95.777,208.234,151.487,208.234,151.487z"/>
			
				<use xlink:href="#SVGID_00000067927719711989248070000011344049429458001086_"  style="overflow:visible;fill:none;stroke:#2B1E1B;stroke-width:4;stroke-miterlimit:10;"/>
		</g>
		<g>
			<defs>
				<path id="SVGID_00000072966821698664101760000011887906199527837608_" d="M297.262,251.217c0,0-36.679,57.275,27.349,101.066
					s57.033,87.15,22.569,92.117c46.676,20.975,89.177-8.198,93.041-64.58C444.085,323.439,385.577,245.15,297.262,251.217z"/>
			</defs>
			<use xlink:href="#SVGID_00000072966821698664101760000011887906199527837608_"  style="overflow:visible;fill:#FEFAEE;"/>
			<clipPath id="SVGID_00000037666894968949950850000000127314148073325220_">
				<use xlink:href="#SVGID_00000072966821698664101760000011887906199527837608_"  style="overflow:visible;"/>
			</clipPath>
			<path style="clip-path:url(#SVGID_00000037666894968949950850000000127314148073325220_);fill:#D1B89D;" d="M319.357,251.455
				c0,0,51.448,0.856,93.076,72.695c41.628,71.839-5.646,118.885-5.646,118.885s48.1-24.599,28.866-97.751
				C419.798,286.213,360.268,253.018,319.357,251.455z"/>
			<path style="clip-path:url(#SVGID_00000037666894968949950850000000127314148073325220_);fill:#CA543D;" d="M337.543,369.63
				c0,0,31.862-0.218,49.161,23.221c-8.203-19.49-18.266-27.223-18.266-27.223s21.092,2.081,33.487,27.61
				c-1.969-14.913-10.321-23.456-10.321-23.456s11.269,1.358,19.027,19.081c-0.485-24.917-13.578-43.141-13.578-43.141
				s18.103,3.84,27.445,30.057c2.205-13.774-6.635-27.141-6.635-27.141s16.609,6.017,23.88,28.253
				c7.271,22.236,17.621,71.57-48.196,89.288s-65.079-45.734-65.079-45.734s27.326,17.559,38.833,3.038
				C378.807,408.962,337.543,369.63,337.543,369.63z"/>
			
				<use xlink:href="#SVGID_00000072966821698664101760000011887906199527837608_"  style="overflow:visible;fill:none;stroke:#2B1E1B;stroke-width:4;stroke-miterlimit:10;"/>
		</g>
		<path style="fill:#CA543D;stroke:#2B1E1B;stroke-width:4;stroke-miterlimit:10;" d="M165.028,116.16c0,0-0.964-22.491,9.908-45.87
			c16.471,24.534,17.478,46.201,17.478,46.201L165.028,116.16z"/>
		<g>
			<path style="fill:#2B1E1B;" d="M177.872,130.069c1.705-16.254,5.131-33.744-3.405-48.678c1.73,1.299,3.187,2.963,4.453,4.773
				C186.998,98.77,184.508,117.333,177.872,130.069L177.872,130.069z"/>
		</g>
		<path style="fill:#F1D7B5;stroke:#2B1E1B;stroke-width:4;stroke-miterlimit:10;" d="M216.213,287.231
			c0,0-23.373,39.544-5.059,62.654c18.314,23.11,24.974,37.619,21.644,48.082c-2.148,6.75-5.11,16.181-9.296,23.933
			c0,0-7.29,5.383-7.29,10.581c0,4.246,7.069,6.49,14.719,5.13c7.975-1.418,11.856-21.478,20.18-34.317
			c8.325-12.839,0-22.63,0-36.976c0-14.346,16.094-54.437,6.66-71.898"/>
		<path style="fill:#F1D7B5;stroke:#2B1E1B;stroke-width:4;stroke-miterlimit:10;" d="M139.961,259.529
			c0,0,0.712,13.929,17.361,53.721c16.649,39.792,26.084,90.8,26.084,90.8l11.654-43.624l-4.126-87.758"/>
		<g>
			<defs>
				<path id="SVGID_00000134948323404568504760000017650666844980301500_" d="M270.407,237.005
					c-33.723-3.885-69.477-28.708-71.697-49.158c-0.944-8.691,1.363-17.649,4.328-25.077c3.022-7.573,7.228-14.612,12.3-20.996
					c5.902-7.43,18.671-25.189,23.57-45.253c-24.238,4.798-40.83,20.228-40.83,20.228l-0.39-0.234
					c-14.104-8.465-31.977-7.45-44.971,2.637c-6.446,5.004-14.821,7.489-23.531,6.107c-0.424-0.067-0.85-0.143-1.277-0.226
					c-20.534-4.017-32.551-9.134-28.859,3.198c5.04,16.833,39.403,28.859,44.398,44.398c0,0,6.66,13.8-3.33,50.188
					s-17.204,75.212,54.942,101.924c46.063,10.619,120.429-15.589,120.984-43.892C316.599,252.544,304.13,240.89,270.407,237.005z"
					/>
			</defs>
			<use xlink:href="#SVGID_00000134948323404568504760000017650666844980301500_"  style="overflow:visible;fill:#FEFAEE;"/>
			<clipPath id="SVGID_00000142145011412759959820000011646267081918089124_">
				<use xlink:href="#SVGID_00000134948323404568504760000017650666844980301500_"  style="overflow:visible;"/>
			</clipPath>
			<path style="clip-path:url(#SVGID_00000142145011412759959820000011646267081918089124_);fill:#F1D7B5;" d="M113.856,145.469
				c0,0,26.037,11.715,37.523,23.908c3.386,3.594,4.46,8.79,2.841,13.455c-4.72,13.601-15.279,26.525-19.69,84.336
				C104.135,199.77,113.856,145.469,113.856,145.469"/>
			<path style="clip-path:url(#SVGID_00000142145011412759959820000011646267081918089124_);fill:#F1D7B5;" d="M142.642,214.633
				c0,0-37.106,84.542,65.338,93.829c71.859,6.229,99.199-10.682,99.199-10.682s2.757,46.187-92.006,39.632
				C120.41,330.856,113.367,272.308,142.642,214.633"/>
			<path style="clip-path:url(#SVGID_00000142145011412759959820000011646267081918089124_);fill:#CA543D;" d="M197.687,116.515
				c0,0-3.34,4.596-2.627,11.848c6.553-2.17,12.92-5.597,12.92-5.597s-7.341,9.619-6.14,20.925
				c13.497-1.916,30.602-17.245,30.602-17.245l10.978-36.862C243.42,89.583,208.484,97.146,197.687,116.515z"/>
			
				<use xlink:href="#SVGID_00000134948323404568504760000017650666844980301500_"  style="overflow:visible;fill:none;stroke:#2B1E1B;stroke-width:4;stroke-miterlimit:10;"/>
		</g>
		<g>
			<polygon style="fill:#2B1E1B;" points="258.683,285.947 245.997,302.671 243.055,299.961 258.683,285.947 			"/>
		</g>
		<g id="XMLID_00000065047420556053697320000008638026121486765752_">
			<path style="fill:#FEFAEE;" d="M190.88,302.271c0,0-0.325,40.095-4.997,71.037c-5.216,34.545-6.362,65.737-7.472,77.551
				c-1.11,11.815,4.44,13.036,13.319,13.036c6.882,0,11.171-3.986,9.107-10.821c-2.319-7.68-2.758-15.742-1.831-23.67
				c1.997-17.083,5.981-43.202,12.96-59.962c11.1-26.655,31.359-46.082,42.189-92.848"/>
			<path style="fill:#2B1E1B;" d="M190.88,302.271c1.215,15.707,0.049,31.451-0.995,47.137c-1.409,19.563-4.949,38.941-6.38,58.513
				c-1.093,11.714-1.854,23.421-2.614,35.176c-0.151,3.182-0.782,8.476-0.686,11.521c0.121,6.643,4.83,7.272,10.456,7.312
				c4.779,0.275,9.755-1.604,8.526-7.238c-2.395-7.927-3.137-16.382-2.206-24.604c0.912-7.87,2.025-15.645,3.372-23.43
				c7.522-44.69,17.357-49.626,36.82-86.403c7.234-13.926,12.176-28.731,16.983-43.661c-1.246,7.767-3.071,15.468-5.634,22.935
				c-5.08,14.939-12.407,29.061-20.351,42.634c-4.883,8.492-9.839,16.874-13.664,25.828c-8.212,19.771-11.049,41.38-13.663,62.497
				c-0.801,7.613-0.167,15.272,2.056,22.597c0.301,1.081,0.448,2.316,0.439,3.448c-0.339,10.288-13.186,10.479-20.642,8.18
				c-6.831-2.393-6.714-10.26-6.001-16.032c1.338-17.59,2.355-35.279,4.556-52.828c1.795-15.6,4.789-30.996,6.104-46.662
				C188.929,333.571,189.202,317.907,190.88,302.271L190.88,302.271z"/>
		</g>
		<g>
			<path style="fill:#FEFAEE;" d="M270.407,287.917c0,0-22.624,26.09-22.624,49.227c0,23.137,21.644,33.475,26.639,40.366
				c4.995,6.892,1.11,18.706,0,29.536c-1.11,10.83-4.7,18.214-4.015,25.106c0.685,6.892,17.889,6.619,19.554,4.048
				c1.665-2.571,7.215-23.246,7.77-37.522c0.555-14.276,0.555-29.044-2.775-32.49c-3.33-3.446-2.78-10.338,3.05-21.168
				c5.829-10.83,35.456-47.538,13.151-88.749"/>
			<path style="fill:#2B1E1B;" d="M270.407,287.917c-9.376,13.585-19.962,29.808-21.233,46.541
				c-0.806,9.424,2.875,18.678,9.106,25.692c3.546,4.152,8.422,8.094,12.661,11.629c3.141,2.487,6.497,5.944,7.181,10.148
				c1.242,5.999-0.064,12.16-0.902,17.966c-0.677,3.887-0.962,7.595-1.554,11.535c-0.625,3.922-1.597,7.757-2.433,11.479
				c-0.66,3.083-1.287,6.221-0.888,9.282c0.042,0.253,0.159,0.476,0.287,0.712c1.722,2.266,6.057,2.875,9.012,2.996
				c2.31,0.018,4.679,0.019,6.715-0.89c0.073-0.039,0.048-0.065-0.06,0.098c3.051-7.765,4.64-16.27,6.101-24.503
				c1.311-7.598,1.5-15.203,1.556-22.871c-0.149-6.4,0.259-13.203-1.945-19.215c-0.108-0.255-0.286-0.565-0.469-0.78
				c-2.097-2.125-2.876-5.525-2.681-8.162c0.468-6.277,3.276-11.867,6.257-17.201c12.355-19,23.063-40.627,19.454-63.875
				c-1.079-7.455-3.669-14.616-7.176-21.273c0,0,3.52-1.905,3.52-1.905c5.731,10.527,8.862,22.503,8.502,34.522
				c-0.397,15.983-6.553,31.199-14.623,44.741c-3.866,6.588-8.447,12.768-10.755,20.033c-0.944,3.139-1.909,7.26,0.193,9.886
				c0.336,0.443,0.775,0.936,1.075,1.399c1.697,3.12,2.021,6.677,2.374,10.042c0.325,3.974,0.381,7.899,0.361,11.813
				c0.095,11.804-1.132,23.58-3.942,35.032c-0.907,3.824-1.862,7.598-3.152,11.411c-0.505,1.437-1.126,3.442-2.512,4.189
				c-4.967,2.41-13.454,1.733-18.245-0.878c-1.739-0.939-3.479-2.893-3.663-5.071c-0.351-3.467,0.308-7.045,1.066-10.347
				c0.893-3.835,1.855-7.519,2.479-11.255c0.585-3.724,0.953-7.755,1.639-11.506c0.92-6.889,3.326-15.361-0.985-21.225
				c-1.908-2.374-5.943-5.542-8.313-7.661c-5.96-5.164-11.564-11.162-14.802-18.504c-3.394-7.317-3.704-15.77-2.055-23.567
				C251.197,313.115,259.7,299.217,270.407,287.917L270.407,287.917z"/>
		</g>
		<path style="fill:#2B1E1B;stroke:#2B1E1B;stroke-width:4;stroke-miterlimit:10;" d="M101.317,125.8c0,0-5.196-6.606,0-6.035
			C106.513,120.336,111.858,124.665,101.317,125.8z"/>
		<path style="fill:#2B1E1B;stroke:#2B1E1B;stroke-width:4;stroke-miterlimit:10;" d="M178.977,128.505
			c0,0-11.226-7.763-20.348,2.657C166.069,135.871,174.498,135.858,178.977,128.505z"/>
		<path style="fill:none;stroke:#CA543D;stroke-width:4;stroke-miterlimit:10;" d="M178.977,128.505c0,0-11.226-7.763-20.348,2.657
			C166.069,135.871,174.498,135.858,178.977,128.505z"/>
		<g>
			<path style="fill:#2B1E1B;" d="M391.027,339.753c20.705,18.851,30.216,51.89,17.059,77.575
				C415.318,389.52,407.139,362.789,391.027,339.753L391.027,339.753z"/>
		</g>
		<g>
			<path style="fill:#2B1E1B;" d="M309.395,64.777c9.963,26.169,3.531,59.943-19.805,76.92
				C308.597,120.15,313.369,92.606,309.395,64.777L309.395,64.777z"/>
		</g>
		<g>
			<path style="fill:#2B1E1B;" d="M350.115,345.284c19.879-0.244,38.495,13.311,46.442,31.229c2.731,5.949,4.5,12.279,5.173,18.692
				c-2.6-6.773-5.405-13.244-9.156-19.265C383.303,360.444,367.741,349.403,350.115,345.284L350.115,345.284z"/>
		</g>
		<g>
			<path style="fill:#2B1E1B;" d="M340.528,116.49c2.961,19.659-7.921,39.954-24.583,50.277c-5.52,3.519-11.548,6.137-17.809,7.681
				c6.353-3.502,12.38-7.166,17.832-11.705C330.05,151.44,338.859,134.514,340.528,116.49L340.528,116.49z"/>
		</g>
		<g>
			<path style="fill:#2B1E1B;" d="M69.653,248.976c15.133-11.098,38.477-7.635,50.342,6.701
				C103.841,246.194,87.737,243.611,69.653,248.976L69.653,248.976z"/>
		</g>
		<g>
			<path style="fill:#2B1E1B;" d="M75.601,236.594c9.781-8.874,26.585-9.741,38.445-4.905c-1.701,0.227-3.348,0.238-4.992,0.333
				C97.729,232.527,86.572,233.361,75.601,236.594L75.601,236.594z"/>
		</g>
		<g>
			<path style="fill:#2B1E1B;" d="M452.233,231.86c5.364,12.112,0.945,28.257-7.371,38.049c0.317-1.687,0.821-3.255,1.246-4.845
				C449.173,254.15,451.872,243.292,452.233,231.86L452.233,231.86z"/>
		</g>
		<g>
			<path style="fill:#2B1E1B;" d="M343.881,126.445c5.364,12.112,0.945,28.257-7.371,38.049c0.317-1.687,0.821-3.255,1.246-4.845
				C340.821,148.734,343.52,137.876,343.881,126.445L343.881,126.445z"/>
		</g>
		<g>
			<path style="fill:#2B1E1B;" d="M231.414,105.37c-11.308,7.264-19.756,15.435-23.433,28.72
				C205.349,120.125,217.902,106.771,231.414,105.37L231.414,105.37z"/>
		</g>
		<g>
			<path style="fill:#CA543D;" d="M151.662,135.82c8.518,5.576,19.791,7.25,28.857,1.979c1.337-0.859,2.703-1.842,3.824-2.971
				c0.86-0.808,1.669-1.831,2.375-2.772l0.505,0.323c-0.264,8.315-8.883,14.063-16.628,14.508c-4,0.305-8.021-0.563-11.441-2.38
				c-3.407-1.838-6.282-4.561-7.836-8.195L151.662,135.82L151.662,135.82z"/>
		</g>
		<g>
			<path style="fill:#2B1E1B;" d="M158.48,165.54c8.662,3.214,16.735,8.246,23.132,14.96c0,0-2.561,1.122-2.561,1.122
				c-0.221-2.674-0.243-5.417-0.993-7.984c-0.019-0.055,0.07,0.067,0.117,0.098c0,0,0.103,0.085,0.158,0.113l1.268-1.997
				c0.879,0.685,1.663,1.357,2.434,2.095c2.253,2.197,4.318,4.693,5.637,7.551c-2.764-2.96-5.971-5.543-9.387-7.68
				c0,0,1.268-1.997,1.268-1.997c0.209,0.125,0.319,0.263,0.459,0.436c0.891,1.39,1.104,3.081,1.418,4.645
				c0.472,2.555,0.7,6.031,0.966,8.631c0,0-2.95-3.011-2.95-3.011C173.13,176.056,165.709,171.005,158.48,165.54L158.48,165.54z"/>
		</g>
		<g>
			<path style="fill:#2B1E1B;" d="M186.863,453.781c1.556,3.166,2.504,6.632,3.184,10.114c0,0-4,0-4,0
				C186.699,460.584,187.103,457.187,186.863,453.781L186.863,453.781z"/>
		</g>
		<g>
			<path style="fill:#2B1E1B;" d="M227.126,427.757c-1.79,3.092-2.292,6.687-1.617,10.114c0,0-4,0-4,0
				C222.144,434.014,224.107,430.195,227.126,427.757L227.126,427.757z"/>
		</g>
		<g>
			<path style="fill:#2B1E1B;" d="M193.086,452.901c2.003,3.347,3.293,7.102,3.974,10.994h-4
				C193.715,460.313,193.778,456.539,193.086,452.901L193.086,452.901z"/>
		</g>
		<g>
			<path style="fill:#2B1E1B;" d="M284.829,426.782c-0.239,3.406,0.165,6.803,0.816,10.114h-4
				C282.325,433.414,283.274,429.948,284.829,426.782L284.829,426.782z"/>
		</g>
		<g>
			<path style="fill:#2B1E1B;" d="M278.607,425.902c-0.692,3.638-0.629,7.413,0.026,10.994h-4
				C275.313,433.005,276.604,429.249,278.607,425.902L278.607,425.902z"/>
		</g>
		<path style="fill:#CA543D;" d="M185.121,378.54l-4.92,47.362c9.696-42.345,38.245-69.802,38.245-69.802s5.872-10.293,12.967-22.44
			C193.773,339.786,185.121,378.54,185.121,378.54z"/>
		<path style="fill:#CA543D;" d="M198.265,348.356c0,0,6.253-22.889,23.58-34.94c17.327-12.052,25.886-29.459,25.886-29.459
			s-2.365,16.809-13.112,32.2C223.872,331.547,215.107,328.516,198.265,348.356z"/>
		<path style="fill:#CA543D;" d="M261.717,299.685c0,0-21.464,50.034,39.464,40.068c-5.161,9.243-6.282,11.878-6.282,11.878
			s-35.77,22.803-46.489-7.854C244.536,329.787,258.359,300.836,261.717,299.685z"/>
		<path style="fill:#CA543D;" d="M280.85,278.59c0,0-14.699,17.248-16.966,34.826c-2.268,17.578,13.736,18.374,13.736,18.374
			S262.098,312.225,280.85,278.59z"/>
	</g>
</g>
</svg>
